<svg width="22" height="20" viewBox="0 0 22 20" fill="none" xmlns="http://www.w3.org/2000/svg">
<path d="M21.7227 18.5675L15.4106 12.8251C16.655 11.4684 17.4034 9.73462 17.4034 7.84098C17.4034 3.52086 13.5034 0.00820923 8.70622 0.00820923C3.90901 0.00820923 0 3.52496 0 7.84508C0 12.1652 3.89999 15.6778 8.6972 15.6778C10.7351 15.6778 12.6107 15.0425 14.0986 13.981L20.4332 19.7397C20.8029 20.0758 21.353 20.0758 21.7227 19.7397C22.0924 19.4036 22.0924 18.9036 21.7227 18.5675ZM1.84855 7.84508C1.84855 4.45129 4.92345 1.69281 8.6972 1.69281C12.4709 1.69281 15.5459 4.45129 15.5459 7.84508C15.5459 11.2389 12.4709 13.9973 8.6972 13.9973C4.92345 13.9973 1.84855 11.2348 1.84855 7.84508Z" fill="#5ED235"/>
</svg>
