<svg width="35" height="35" viewBox="0 0 35 35" fill="none" xmlns="http://www.w3.org/2000/svg">
<path d="M10.5085 8.95485L14.8388 9.8209C16.5955 10.1723 18.4045 10.1723 20.1612 9.8209L24.4915 8.95485C29.4106 7.97103 34 11.7335 34 16.7499C34 22.1759 28.6842 26.0073 23.5367 24.2915L21.2062 23.5147C18.8005 22.7127 16.1995 22.7127 13.7938 23.5147L11.4633 24.2915C6.31579 26.0073 1 22.1759 1 16.7499C1 11.7335 5.58942 7.97103 10.5085 8.95485Z" stroke="#5ED235" stroke-width="2"/>
<path d="M8.95484 24.4915L9.82089 20.1612C10.1722 18.4045 10.1722 16.5955 9.82089 14.8388L8.95484 10.5085C7.97103 5.58943 11.7335 1 16.7499 1C22.1759 1 26.0073 6.31579 24.2915 11.4633L23.5146 13.7938C22.7127 16.1995 22.7127 18.8005 23.5146 21.2062L24.2915 23.5367C26.0073 28.6842 22.1759 34 16.7499 34C11.7335 34 7.97102 29.4106 8.95484 24.4915Z" stroke="#5ED235" stroke-width="2"/>
</svg>
